<?xml version="1.0" encoding="UTF-8"?>
<!DOCTYPE svg PUBLIC "-//W3C//DTD SVG 1.1//EN" "http://www.w3.org/Graphics/SVG/1.1/DTD/svg11.dtd">
<!-- Creator: CorelDRAW 2019 (64 Bit) -->
<svg xmlns="http://www.w3.org/2000/svg" xml:space="preserve" width="489.964mm" height="734.949mm" version="1.1" style="shape-rendering:geometricPrecision; text-rendering:geometricPrecision; image-rendering:optimizeQuality; fill-rule:evenodd; clip-rule:evenodd"
viewBox="0 0 7366.28 11049.46"
 xmlns:xlink="http://www.w3.org/1999/xlink">
 <defs>
  <style type="text/css">
   <![CDATA[
    .fil9 {fill:#004C3F}
    .fil0 {fill:#18C035}
    .fil2 {fill:#1A237E}
    .fil3 {fill:#2F4FFC}
    .fil5 {fill:#761413}
    .fil4 {fill:#81B0FE}
    .fil1 {fill:#B0E904}
    .fil7 {fill:#D50002}
    .fil6 {fill:#D60103}
    .fil8 {fill:#FE3C00}
   ]]>
  </style>
 </defs>
 <g id="Layer_x0020_1">
  <metadata id="CorelCorpID_0Corel-Layer"/>
  <path class="fil0" d="M7366.27 9207.86c0,-1017.09 -824.52,-1841.61 -1841.61,-1841.61l1841.61 0c0,-1017.09 -824.52,-1841.61 -1841.61,-1841.61l-3683.05 0c-1017.09,0 -1841.61,824.52 -1841.61,1841.61l0 1841.61c0,1017.09 824.52,1841.61 1841.61,1841.61l3683.05 0c1017.09,0 1841.61,-824.52 1841.61,-1841.61z"/>
  <path class="fil0" d="M-0 5524.65l7366.28 0 0 -1841.61 -1841.61 0c1017.09,0 1841.61,-824.52 1841.61,-1841.61 0,-1017.09 -824.52,-1841.44 -1841.61,-1841.44l-3683.05 0c-1017.09,0 -1841.61,824.52 -1841.61,1841.61l1841.61 0c-1017.09,0 -1841.61,824.35 -1841.61,1841.44l0 1841.61z"/>
  <path class="fil1" d="M6657.97 8499.56c0,-821.5 -665.96,-1487.46 -1487.46,-1487.46l1487.46 0c0,-821.5 -665.96,-1487.46 -1487.46,-1487.46l-2974.77 0c-821.5,0 -1487.46,665.96 -1487.46,1487.46l0 1487.46c0,821.5 665.96,1487.46 1487.46,1487.46l2974.77 0c821.5,0 1487.46,-665.96 1487.46,-1487.46z"/>
  <path class="fil1" d="M708.29 5524.66l5949.69 0 0 -1487.46 -1487.46 0c821.5,0 1487.46,-665.96 1487.46,-1487.46 0,-821.5 -665.96,-1487.31 -1487.46,-1487.31l-2974.77 0c-821.5,0 -1487.46,665.96 -1487.46,1487.46l1487.46 0c-821.5,0 -1487.46,665.82 -1487.46,1487.31l0 1487.46z"/>
  <path class="fil2" d="M6091.34 7932.91c0,-665.02 -539.11,-1204.13 -1204.13,-1204.13l1204.13 0c0,-665.02 -539.11,-1204.13 -1204.13,-1204.13l-2408.15 0c-665.02,0 -1204.13,539.11 -1204.13,1204.13l0 1204.13c0,665.02 539.11,1204.13 1204.13,1204.13l2408.15 0c665.02,0 1204.13,-539.11 1204.13,-1204.13z"/>
  <path class="fil2" d="M1297.11 5524.66l4816.41 0 0 -1204.13 -1204.13 0c665.02,0 1204.13,-539.11 1204.13,-1204.13 0,-665.02 -539.11,-1204.01 -1204.13,-1204.01l-2408.15 0c-665.02,0 -1204.13,539.11 -1204.13,1204.13l1204.13 0c-665.02,0 -1204.13,539 -1204.13,1204.02l0 1204.13z"/>
  <path class="fil3" d="M5595.53 7437.1c0,-528.1 -428.12,-956.22 -956.22,-956.22l956.22 0c0,-528.1 -428.12,-956.22 -956.22,-956.22l-1912.35 0c-528.1,0 -956.22,428.12 -956.22,956.22l0 956.22c0,528.1 428.12,956.22 956.22,956.22l1912.35 0c528.1,0 956.22,-428.12 956.22,-956.22z"/>
  <path class="fil3" d="M1792.92 5524.66l3824.8 0 0 -956.22 -956.22 0c528.1,0 956.22,-428.12 956.22,-956.22 0,-528.1 -428.12,-956.13 -956.22,-956.13l-1912.35 0c-528.1,0 -956.22,428.12 -956.22,956.22l956.22 0c-528.1,0 -956.22,428.03 -956.22,956.13l0 956.22z"/>
  <path class="fil4" d="M5205.97 7047.53c0,-420.53 -340.91,-761.44 -761.44,-761.44l761.44 0c0,-420.53 -340.91,-761.44 -761.44,-761.44l-1522.8 0c-420.53,0 -761.44,340.91 -761.44,761.44l0 761.44c0,420.53 340.91,761.44 761.44,761.44l1522.8 0c420.53,0 761.44,-340.91 761.44,-761.44z"/>
  <path class="fil4" d="M2160.3 5524.66l3045.67 0 0 -761.44 -761.44 0c420.53,0 761.44,-340.91 761.44,-761.44 0,-420.53 -340.91,-761.36 -761.44,-761.36l-1522.8 0c-420.53,0 -761.44,340.91 -761.44,761.44l761.44 0c-420.53,0 -761.44,340.84 -761.44,761.36l0 761.44z"/>
  <path class="fil5" d="M4887.23 6728.79c0,-332.51 -269.55,-602.07 -602.06,-602.07l602.06 0c0,-332.51 -269.55,-602.07 -602.06,-602.07l-1204.07 0c-332.51,0 -602.07,269.56 -602.07,602.07l0 602.07c0,332.51 269.56,602.07 602.07,602.07l1204.07 0c332.51,0 602.06,-269.56 602.06,-602.07z"/>
  <path class="fil5" d="M2501.21 5524.66l2408.2 0 0 -602.07 -602.06 0c332.51,0 602.06,-269.55 602.06,-602.07 0,-332.51 -269.55,-602.01 -602.06,-602.01l-1204.07 0c-332.51,0 -602.06,269.56 -602.06,602.07l602.06 0c-332.51,0 -602.06,269.5 -602.06,602.01l0 602.07z"/>
  <path class="fil6" d="M4642.82 6484.37c0,-265.01 -214.84,-479.85 -479.85,-479.85l479.85 0c0,-265.01 -214.84,-479.85 -479.85,-479.85l-959.66 0c-265.01,0 -479.85,214.84 -479.85,479.85l0 479.85c0,265.01 214.84,479.85 479.85,479.85l959.66 0c265.01,0 479.85,-214.84 479.85,-479.85z"/>
  <path class="fil7" d="M2745.63 5524.66l1919.37 0 0 -479.85 -479.85 0c265.01,0 479.85,-214.84 479.85,-479.85 0,-265.01 -214.84,-479.81 -479.85,-479.81l-959.66 0c-265.01,0 -479.85,214.84 -479.85,479.86l479.85 0c-265.01,0 -479.85,214.79 -479.85,479.81l0 479.85z"/>
  <path class="fil8" d="M4434.2 6275.74c0,-207.4 -168.13,-375.54 -375.54,-375.54l375.54 0c0,-207.4 -168.13,-375.54 -375.54,-375.54l-751.04 0c-207.4,0 -375.54,168.13 -375.54,375.54l0 375.54c0,207.4 168.13,375.54 375.54,375.54l751.04 0c207.4,0 375.54,-168.13 375.54,-375.54z"/>
  <path class="fil8" d="M2954.26 5524.66l1502.12 0 0 -375.54 -375.54 0c207.4,0 375.54,-168.13 375.54,-375.54 0,-207.4 -168.13,-375.5 -375.54,-375.5l-751.04 0c-207.4,0 -375.54,168.13 -375.54,375.54l375.54 0c-207.4,0 -375.54,168.1 -375.54,375.5l0 375.54z"/>
  <g>
   <path class="fil9" d="M3981.74 4603.13l-597.22 0c-164.92,0 -298.62,133.7 -298.62,298.62l298.62 0c-164.92,0 -298.62,133.67 -298.62,298.59l0 298.62 1194.46 0 0 -298.62 -298.62 0c164.92,0 298.62,-133.7 298.62,-298.62 0,-164.93 -133.7,-298.59 -298.62,-298.59l0 0zm0 947l-597.22 0c-164.92,0 -298.62,133.7 -298.62,298.62l0 298.62c0,164.92 133.7,298.62 298.62,298.62l597.22 0c164.92,0 298.62,-133.7 298.62,-298.62 0,-164.92 -133.7,-298.62 -298.62,-298.62l298.62 0c0,-164.92 -133.7,-298.62 -298.62,-298.62l0 0zm0 0l0 0 0 0z"/>
  </g>
 </g>
</svg>
