<?xml version="1.0" encoding="UTF-8"?>
<!DOCTYPE svg PUBLIC "-//W3C//DTD SVG 1.1//EN" "http://www.w3.org/Graphics/SVG/1.1/DTD/svg11.dtd">
<!-- Creator: CorelDRAW 2019 (64 Bit) -->
<svg xmlns="http://www.w3.org/2000/svg" xml:space="preserve" width="1480.22mm" height="2220.34mm" version="1.1" style="shape-rendering:geometricPrecision; text-rendering:geometricPrecision; image-rendering:optimizeQuality; fill-rule:evenodd; clip-rule:evenodd"
viewBox="0 0 20802.69 31204.29"
 xmlns:xlink="http://www.w3.org/1999/xlink">
 <defs>
  <style type="text/css">
   <![CDATA[
    .fil4 {fill:black}
    .fil1 {fill:#761413}
    .fil3 {fill:#D50002}
    .fil2 {fill:#D60103}
    .fil0 {fill:#FE3C00}
   ]]>
  </style>
 </defs>
 <g id="__x0023_Layer_x0020_1">
  <metadata id="CorelCorpID_0Corel-Layer"/>
  <g id="_2903134063616">
   <path class="fil0" d="M0.01 15601.88l20802.68 0 0 -5200.79 -5200.8 0c2872.31,0 5200.8,-2328.49 5200.8,-5200.79 0,-2872.31 -2328.49,-5200.29 -5200.8,-5200.29l-10401.09 0c-2872.31,0 -5200.8,2328.49 -5200.8,5200.79l5200.8 0c-2872.31,0 -5200.8,2327.99 -5200.8,5200.29l0 5200.79z"/>
   <path class="fil0" d="M20802.69 26003.49c0,-2872.31 -2328.49,-5200.8 -5200.8,-5200.8l5200.8 0c0,-2872.31 -2328.49,-5200.8 -5200.8,-5200.8l-10401.09 0c-2872.31,0 -5200.8,2328.49 -5200.8,5200.8l0 5200.8c0,2872.31 2328.49,5200.8 5200.8,5200.8l10401.09 0c2872.31,0 5200.8,-2328.49 5200.8,-5200.8z"/>
   <path class="fil1" d="M18664.36 23865.07c0,-2281.82 -1849.8,-4131.61 -4131.62,-4131.61l4131.62 0c0,-2281.82 -1849.8,-4131.62 -4131.62,-4131.62l-8262.83 0c-2281.82,0 -4131.62,1849.8 -4131.62,4131.62l0 4131.61c0,2281.82 1849.8,4131.62 4131.62,4131.62l8262.83 0c2281.82,0 4131.62,-1849.8 4131.62,-4131.62z"/>
   <path class="fil1" d="M2138.32 15601.88l16526.07 0 0 -4131.61 -4131.62 0c2281.82,0 4131.62,-1849.8 4131.62,-4131.61 0,-2281.82 -1849.8,-4131.22 -4131.62,-4131.22l-8262.84 0c-2281.82,0 -4131.62,1849.8 -4131.62,4131.61l4131.62 0c-2281.82,0 -4131.62,1849.4 -4131.62,4131.22l0 4131.61z"/>
   <path class="fil2" d="M17075.32 22276c0,-1843.01 -1494.07,-3337.07 -3337.07,-3337.07l3337.07 0c0,-1843.01 -1494.07,-3337.07 -3337.07,-3337.07l-6673.83 0c-1843.01,0 -3337.07,1494.07 -3337.07,3337.07l0 3337.07c0,1843.01 1494.07,3337.07 3337.07,3337.07l6673.83 0c1843.01,0 3337.07,-1494.07 3337.07,-3337.07z"/>
   <path class="fil2" d="M3727.36 15601.89l13347.98 0 0 -3337.07 -3337.08 0c1843.01,0 3337.08,-1494.07 3337.08,-3337.07 0,-1843.01 -1494.07,-3336.75 -3337.08,-3336.75l-6673.83 0c-1843.01,0 -3337.08,1494.07 -3337.08,3337.07l3337.08 0c-1843.01,0 -3337.08,1493.75 -3337.08,3336.75l0 3337.07z"/>
   <path class="fil1" d="M15804.09 21004.74c0,-1491.96 -1209.49,-2701.44 -2701.44,-2701.44l2701.44 0c0,-1491.96 -1209.49,-2701.44 -2701.44,-2701.44l-5402.62 0c-1491.96,0 -2701.44,1209.49 -2701.44,2701.44l0 2701.44c0,1491.96 1209.49,2701.44 2701.44,2701.44l5402.62 0c1491.96,0 2701.44,-1209.48 2701.44,-2701.44z"/>
   <path class="fil1" d="M5048.35 15601.89l10805.51 0 0 -2701.44 -2701.44 0c1491.96,0 2701.44,-1209.48 2701.44,-2701.44 0,-1491.96 -1209.48,-2701.18 -2701.44,-2701.18l-5402.62 0c-1491.96,0 -2701.44,1209.48 -2701.44,2701.44l2701.44 0c-1491.96,0 -2701.44,1209.22 -2701.44,2701.18l0 2701.44z"/>
   <path class="fil0" d="M14691.75 19892.4c0,-1184.79 -960.47,-2145.26 -2145.26,-2145.26l2145.26 0c0,-1184.79 -960.47,-2145.26 -2145.26,-2145.26l-4290.32 0c-1184.79,0 -2145.26,960.47 -2145.26,2145.26l0 2145.26c0,1184.79 960.47,2145.26 2145.26,2145.26l4290.32 0c1184.79,0 2145.26,-960.47 2145.26,-2145.26z"/>
   <path class="fil0" d="M6160.68 15601.89l8580.84 0 0 -2145.26 -2145.26 0c1184.79,0 2145.26,-960.47 2145.26,-2145.26 0,-1184.79 -960.47,-2145.06 -2145.26,-2145.06l-4290.32 0c-1184.79,0 -2145.26,960.47 -2145.26,2145.26l2145.26 0c-1184.79,0 -2145.26,960.26 -2145.26,2145.05l0 2145.26z"/>
   <path class="fil2" d="M13817.79 19018.41c0,-943.44 -764.82,-1708.26 -1708.26,-1708.26l1708.26 0c0,-943.44 -764.82,-1708.26 -1708.26,-1708.26l-3416.36 0c-943.44,0 -1708.26,764.82 -1708.26,1708.26l0 1708.26c0,943.44 764.82,1708.26 1708.26,1708.26l3416.36 0c943.44,0 1708.26,-764.82 1708.26,-1708.26z"/>
   <path class="fil2" d="M6984.9 15601.89l6832.9 0 0 -1708.26 -1708.27 0c943.44,0 1708.27,-764.82 1708.27,-1708.26 0,-943.44 -764.82,-1708.1 -1708.27,-1708.1l-3416.37 0c-943.44,0 -1708.27,764.82 -1708.27,1708.26l1708.27 0c-943.44,0 -1708.27,764.66 -1708.27,1708.1l0 1708.26z"/>
   <path class="fil1" d="M13102.71 18303.33c0,-745.98 -604.74,-1350.72 -1350.72,-1350.72l1350.72 0c0,-745.98 -604.74,-1350.72 -1350.72,-1350.72l-2701.31 0c-745.98,0 -1350.72,604.74 -1350.72,1350.72l0 1350.72c0,745.98 604.74,1350.72 1350.72,1350.72l2701.31 0c745.98,0 1350.72,-604.74 1350.72,-1350.72z"/>
   <path class="fil1" d="M7749.73 15601.89l5402.75 0 0 -1350.72 -1350.72 0c745.98,0 1350.72,-604.74 1350.72,-1350.72 0,-745.98 -604.74,-1350.59 -1350.72,-1350.59l-2701.31 0c-745.98,0 -1350.72,604.74 -1350.72,1350.72l1350.72 0c-745.98,0 -1350.72,604.61 -1350.72,1350.59l0 1350.72z"/>
   <path class="fil2" d="M12554.38 17754.97c0,-594.55 -481.99,-1076.54 -1076.54,-1076.54l1076.54 0c0,-594.55 -481.99,-1076.54 -1076.54,-1076.54l-2152.98 0c-594.55,0 -1076.54,481.99 -1076.54,1076.54l0 1076.54c0,594.55 481.99,1076.54 1076.54,1076.54l2152.98 0c594.55,0 1076.54,-481.99 1076.54,-1076.54z"/>
   <path class="fil3" d="M8298.07 15601.9l4306.06 0 0 -1076.54 -1076.54 0c594.55,0 1076.54,-481.99 1076.54,-1076.54 0,-594.55 -481.99,-1076.44 -1076.54,-1076.44l-2152.98 0c-594.55,0 -1076.54,481.99 -1076.54,1076.54l1076.54 0c-594.55,0 -1076.54,481.88 -1076.54,1076.44l0 1076.54z"/>
   <path class="fil0" d="M12086.33 17286.91c0,-465.3 -377.21,-842.51 -842.51,-842.51l842.51 0c0,-465.3 -377.21,-842.51 -842.51,-842.51l-1684.94 0c-465.3,0 -842.51,377.21 -842.51,842.51l0 842.51c0,465.3 377.21,842.51 842.51,842.51l1684.94 0c465.3,0 842.51,-377.21 842.51,-842.51z"/>
   <path class="fil0" d="M8766.12 15601.9l3369.96 0 0 -842.51 -842.51 0c465.3,0 842.51,-377.21 842.51,-842.51 0,-465.3 -377.21,-842.43 -842.51,-842.43l-1684.94 0c-465.3,0 -842.51,377.21 -842.51,842.51l842.51 0c-465.3,0 -842.51,377.13 -842.51,842.43l0 842.51z"/>
   <g>
    <path class="fil4" d="M11071.26 13531.6l-1339.84 0c-370,0 -669.95,299.95 -669.95,669.95l669.95 0c-370,0 -669.95,299.88 -669.95,669.89l0 669.95 2679.74 0 0 -669.95 -669.95 0c370,0 669.95,-299.95 669.95,-669.95 0,-370 -299.95,-669.89 -669.95,-669.89l0 0zm0 2124.58l-1339.84 0c-370,0 -669.95,299.95 -669.95,669.95l0 669.95c0,370 299.95,669.95 669.95,669.95l1339.84 0c370,0 669.95,-299.95 669.95,-669.95 0,-370 -299.95,-669.95 -669.95,-669.95l669.95 0c0,-370 -299.95,-669.95 -669.95,-669.95l0 0zm0 0l0 0 0 0z"/>
   </g>
  </g>
 </g>
</svg>
