<?xml version="1.0" encoding="UTF-8"?>
<!DOCTYPE svg PUBLIC "-//W3C//DTD SVG 1.1//EN" "http://www.w3.org/Graphics/SVG/1.1/DTD/svg11.dtd">
<!-- Creator: CorelDRAW 2019 (64 Bit) -->
<svg xmlns="http://www.w3.org/2000/svg" xml:space="preserve" width="78.8861mm" height="102.975mm" version="1.1" style="shape-rendering:geometricPrecision; text-rendering:geometricPrecision; image-rendering:optimizeQuality; fill-rule:evenodd; clip-rule:evenodd"
viewBox="0 0 4720 6161.32"
 xmlns:xlink="http://www.w3.org/1999/xlink">
 <defs>
  <style type="text/css">
   <![CDATA[
    .str1 {stroke:#D2AE6D;stroke-width:25.33;stroke-miterlimit:22.9256}
    .str0 {stroke:#D2AE6D;stroke-width:15.2;stroke-miterlimit:22.9256}
    .fil4 {fill:#FEFEFE}
    .fil7 {fill:#D2AE6D}
    .fil6 {fill:#C09F62}
    .fil3 {fill:#48887B}
    .fil1 {fill:#D50002}
    .fil0 {fill:#D60103}
    .fil2 {fill:#FE3C00}
    .fil5 {fill:#D2AE6D;fill-rule:nonzero}
    .fil9 {fill:#C09F62;fill-rule:nonzero}
    .fil8 {fill:#63BDAD;fill-rule:nonzero}
   ]]>
  </style>
   <clipPath id="id0">
    <rect x="2263.44" y="1126.53" width="883.8" height="2079.94"/>
   </clipPath>
 </defs>
 <g id="Layer_x0020_1">
  <metadata id="CorelCorpID_0Corel-Layer"/>
  <path class="fil0" d="M4277.11 3983.76c0,-434.04 -351.86,-785.9 -785.9,-785.9l785.9 0c0,-434.04 -351.86,-785.91 -785.9,-785.91l-1571.74 0c-434.04,0 -785.9,351.87 -785.9,785.91l0 785.9c0,434.04 351.86,785.91 785.9,785.91l1571.74 0c434.04,0 785.9,-351.87 785.9,-785.91z"/>
  <path class="fil1" d="M1133.57 2357.64l3143.54 0 0 -785.9 -785.9 0c434.04,0 785.9,-351.87 785.9,-785.91 0,-434.04 -351.86,-785.82 -785.9,-785.82l-1571.73 0c-434.04,0 -785.91,351.86 -785.91,785.9l785.91 0c-434.04,0 -785.91,351.79 -785.91,785.83l0 785.9z"/>
  <path class="fil2" d="M3935.43 3642.07c0,-339.68 -275.37,-615.05 -615.05,-615.05l615.05 0c0,-339.68 -275.37,-615.06 -615.05,-615.06l-1230.05 0c-339.68,0 -615.05,275.38 -615.05,615.06l0 615.05c0,339.68 275.37,615.05 615.05,615.05l1230.05 0c339.68,0 615.05,-275.37 615.05,-615.05z"/>
  <path class="fil2" d="M1475.26 2357.64l2460.17 0 0 -615.05 -615.06 0c339.68,0 615.06,-275.37 615.06,-615.05 0,-339.68 -275.38,-615 -615.06,-615l-1230.05 0c-339.68,0 -615.05,275.38 -615.05,615.06l615.05 0c-339.68,0 -615.05,275.31 -615.05,614.99l0 615.05z"/>
  <g id="g368">
   <path id="path360" class="fil3 str0" d="M1451.76 6020.85l0 103.28 563.51 0.01 0 -134.27 -353.58 0 0 -3.69c0,-21.4 8.93,-30.25 51.36,-38.36l131.75 -23.6c111.66,-20.65 171.95,-49.43 171.95,-135.74l0 -22.87c0,-109.18 -93.79,-155.66 -281.38,-155.66 -180.89,0 -282.87,51.64 -285.85,167.47l-0.75 19.92 206.2 0 0.75 -19.18c0.75,-30.98 27.54,-49.43 81.14,-49.43 50.62,0 73.7,11.81 73.7,40.57l0 13.28c0,20.65 -14.14,34.67 -55.09,42.05l-127.29 24.35c-135.48,22.87 -176.42,75.25 -176.42,171.89l0 0.01z"/>
   <path id="path362" class="fil3 str0" d="M2392.68 6136.67c206.94,0 329.77,-56.81 329.77,-219.84l0 -87.05c0,-163.03 -122.83,-220.57 -329.77,-220.57 -206.2,0 -329.77,57.54 -329.77,220.57l0 87.05c0,163.04 123.57,219.84 329.77,219.84zm-122.83 -213.2l0 -100.33c0,-55.33 32.75,-86.31 122.82,-86.31 90.08,0 123.57,30.98 123.57,86.31l0 100.33c0,55.33 -33.49,86.32 -123.57,86.32 -90.07,0 -122.82,-30.99 -122.82,-86.32z"/>
   <path id="path364" class="fil3 str0" d="M2764.88 6020.85l0 103.28 563.51 0.01 0 -134.27 -353.6 0 0 -3.69c0,-21.4 8.93,-30.25 51.36,-38.36l131.76 -23.6c111.66,-20.65 171.95,-49.43 171.95,-135.74l0 -22.87c0,-109.18 -93.79,-155.66 -281.38,-155.66 -180.89,0 -282.87,51.64 -285.85,167.47l-0.75 19.92 206.21 0 0.74 -19.18c0.75,-30.98 27.55,-49.43 81.15,-49.43 50.62,0 73.69,11.81 73.69,40.57l0 13.28c0,20.65 -14.14,34.67 -55.09,42.05l-127.29 24.35c-135.48,22.87 -176.42,75.25 -176.42,171.89l0 0.01z"/>
   <path id="path366" class="fil3 str0" d="M3699.1 6136.67c209.92,0 303.71,-48.69 303.71,-166.72l0 -30.25c0,-88.53 -78.9,-134.27 -227.04,-134.27 -109.42,0 -170.47,24.34 -196.52,65.65l0 -48.69c0,-70.82 35.73,-92.21 116.87,-92.21 58.06,0 85.61,10.33 86.35,27.3l0 7.38 203.22 0 0 -6.64c-2.98,-101.81 -93.79,-149.02 -288.08,-149.02 -217.36,0 -322.32,64.18 -322.32,222.79l0 94.43c0,150.49 101.98,210.25 323.81,210.25l0 0zm-116.13 -159.35l0 -21.39c0,-26.56 37.96,-41.31 113.89,-41.31 68.48,0 100.49,14.75 100.49,43.52l0 17.7c0,30.99 -32.01,45.74 -99.75,45.74 -75.19,0 -114.64,-16.23 -114.64,-44.26l0.01 0z"/>
  </g>
  <g id="g366">
   <path id="path428" class="fil3 str0" d="M1517.39 5433.32l-47.21 -181c-6.46,21.9 -49.04,181 -49.04,181l-87.98 0c-23.41,-85.58 -62.15,-235.83 -85.15,-321.41 -1.82,-7.03 -3.43,-14.26 -5.45,-22.9 35.92,0 69.42,0 105.74,0l43.19 181.19 48.84 -181.39 62.15 0c10.29,37.96 48.43,181.19 48.43,181.19 0,0 35.72,-145.04 44.2,-182.8 0,0 75.47,0 105.13,0 0,0 -93.23,345.91 -95.65,345.91 0,0.2 -63.17,0.2 -87.18,0.2l-0.01 0z"/>
   <path id="path430" class="fil3 str0" d="M2744.51 5433.32c0,-112.09 0,-228.2 0,-344.51 51.46,0 102.11,0 140.85,0 113.41,0 181.41,75.53 181.41,171.74 0,94.61 -70.23,172.76 -181.41,172.76 -58.32,0 -80.92,0 -140.85,0zm105.74 -267.57c0,64.88 0,127.36 0,191.04 15.54,0 21.59,0 34.91,0 37.13,0 76.28,-43.59 76.28,-96.22 0,-64.08 -36.73,-94.81 -76.28,-94.81 -13.32,0 -18.36,-0.6 -34.91,0z"/>
   <path id="path432" class="fil3 str0" d="M1888.29 5081.39c107.76,0 181.82,84.97 182.43,179.58 0.61,106.07 -74.06,180.39 -181.41,180.59 -109.17,0.2 -183.63,-73.12 -183.43,-180.79 0,-106.27 74.26,-179.39 182.43,-179.39l-0.01 0zm75.47 181.59c0,-16.87 -2.42,-34.95 -7.46,-50.62 -10.29,-31.54 -34.31,-48.01 -67,-48.41 -33.7,-0.4 -58.72,16.07 -69.41,48.41 -11.7,34.95 -11.91,70.31 2.62,104.46 12.11,28.93 35.32,42.59 66.59,42.39 30.47,-0.2 53.28,-14.06 64.17,-42.39 6.86,-17.48 10.49,-35.36 10.49,-53.83l0 -0.01z"/>
   <path id="path434" class="fil3 str0" d="M2117.74 5088.82c66.19,0 99.48,0 165.67,0 78.5,0 132.18,47.61 132.18,120.73 0,60.66 -39.15,85.57 -76.28,99.44 28.46,40.38 57.51,80.75 88.19,124.34 -38.54,0 -78.09,1.2 -112.61,0l-70.22 -108.88 -21.19 0.01c0,34.55 0,72.92 0,108.88 -35.52,0 -70.22,0 -104.93,0 0.2,-114.5 -0.81,-233.22 -0.81,-344.51zm105.94 167.53c11.51,0 29.87,0 43.19,0 26.84,0 43.19,-18.69 43.19,-45.8 0,-30.33 -16.15,-45.8 -42.18,-45.8 -14.32,0 -27.24,0 -44.4,0 0.2,31.74 0.2,60.87 0.2,91.6l-0.01 0z"/>
   <path id="path436" class="fil3 str0" d="M3712.93 5088.42c37.33,0 70.02,0 102.91,0 1.21,2.41 3.03,4.42 3.03,6.43 -0.2,73.52 1.82,147.44 -1.82,220.77 -3.43,67.9 -49.84,113.29 -117.85,121.53 -21.8,2.61 -44.6,2.61 -66.19,-0.8 -70.02,-11.05 -112.4,-55.64 -116.24,-128.56 -3.63,-71.91 -0.81,-144.03 -0.81,-218.15 35.12,0 69.42,0 107.16,0 0,8.63 0,16.67 0,24.91 0,63.08 0,126.15 0.41,189.02 0.2,20.69 5.44,39.57 27.44,48.01 31.89,12.25 60.54,-8.04 61.35,-45.6 1.41,-63.08 0.6,-125.95 0.81,-189.02 -0.2,-8.63 -0.2,-17.67 -0.2,-28.52l0.01 0.01z"/>
   <path id="path438" class="fil3 str0" d="M3879.36 5430.91c0,-114.1 0,-230.21 0,-342.5 0,0 98.28,0 160.23,0 69.02,0 128.54,41.38 128.54,122.13 0,70.91 -47.82,113.29 -128.54,120.93 -21.19,2.41 -30.07,0.8 -54.69,1.2 0,32.34 0,64.48 0,98.23 -36.53,0 -70.43,0 -105.54,0l0 0.01zm106.55 -267.17c0,32.14 0,61.47 0,93.21l38.95 0c26.43,0 38.95,-24.1 38.95,-46.4 0,-26.31 -13.92,-46.2 -44.8,-45.4 0,0.2 -5.45,-0.6 -33.09,-1.41z"/>
   <path id="path440" class="fil3 str0" d="M3464.72 5321.43c0,27.32 -0.2,87.79 -0.2,87.79 0,0 -7.26,4.82 -13.72,8.84 -105.95,66.09 -254.46,-7.63 -266.17,-131.78 -8.48,-91.6 28.65,-163.11 102.51,-192.04 55.9,-21.89 111.8,-19.28 165.88,8.44 14.73,7.63 21.39,16.47 21.39,16.47 0,0 -22.6,54.24 -29.47,72.92 -59.93,-35.15 -105.94,-34.55 -135.4,1.01 -29.46,35.96 -27.24,104.46 4.64,137.4 35.12,36.36 89.6,33.75 150.54,-9.04l0.01 0z"/>
   <path id="path442" class="fil3 str0" d="M2714.45 5355.58c-9.48,26.12 -22.2,56.85 -30.87,77.74 0,0 -144.29,-0.4 -212.69,-0.4 0,-115.51 0,-229 0,-343.71 34.71,0 68.61,0 105.14,0 0,88.59 0,176.38 0,266.36 45.6,0 91.01,0 138.43,0z"/>
  </g>
  <g>
   <path class="fil4" d="M3194.4 875.38l-978.12 0c-270.11,0 -489.08,218.97 -489.08,489.08l489.08 0c-270.11,0 -489.08,218.92 -489.08,489.04l0 489.08 1956.29 0 0 -489.08 -489.09 0c270.12,0 489.09,-218.97 489.09,-489.09 0,-270.11 -218.97,-489.03 -489.09,-489.03l0 0zm0 1551l-978.12 0c-270.11,0 -489.08,218.97 -489.08,489.09l0 489.08c0,270.11 218.97,489.09 489.08,489.09l978.12 0c270.12,0 489.09,-218.98 489.09,-489.09 0,-270.11 -218.97,-489.08 -489.09,-489.08l489.09 0c0,-270.12 -218.97,-489.09 -489.09,-489.09l0 0zm0 0l0 0 0 0z"/>
   <path id="1" class="fil5" d="M2216.28 860.33l978.12 0 0 30.1 -978.12 0 0 0 0 -30.1zm-489.08 489.08l0 30.1 -15.05 -15.05 0.65 -25.93 1.95 -25.6 3.21 -25.23 4.43 -24.83 5.62 -24.39 6.8 -23.93 7.93 -23.43 9.03 -22.9 10.1 -22.34 11.13 -21.73 12.13 -21.12 13.12 -20.45 14.05 -19.76 14.96 -19.04 15.84 -18.29 16.69 -17.5 17.5 -16.69 18.29 -15.84 19.04 -14.96 19.76 -14.05 20.45 -13.12 21.12 -12.13 21.73 -11.13 22.34 -10.1 22.9 -9.03 23.43 -7.93 23.93 -6.8 24.39 -5.62 24.83 -4.43 25.23 -3.21 25.6 -1.95 25.93 -0.65 0 30.1 -24.41 0.62 -24.08 1.83 -23.72 3.02 -23.35 4.17 -22.93 5.29 -22.49 6.39 -22.02 7.45 -21.52 8.49 -21 9.49 -20.44 10.46 -19.85 11.42 -19.23 12.33 -18.59 13.22 -17.91 14.08 -17.2 14.9 -16.47 15.7 -15.69 16.47 -14.9 17.2 -14.08 17.91 -13.22 18.59 -12.33 19.23 -11.42 19.85 -10.46 20.44 -9.49 21 -8.49 21.52 -7.45 22.02 -6.39 22.49 -5.29 22.93 -4.17 23.35 -3.02 23.72 -1.83 24.08 -0.62 24.41 -15.05 -15.05zm0 30.1l-15.05 0 0 -15.05 15.05 15.05zm489.08 0l-489.08 0 0 -30.1 489.08 0 0 30.1zm-474.03 473.99l-30.1 0 0 0 0.65 -25.93 1.95 -25.6 3.21 -25.23 4.43 -24.83 5.62 -24.39 6.8 -23.93 7.93 -23.43 9.03 -22.89 10.09 -22.34 11.13 -21.73 12.13 -21.12 13.12 -20.45 14.05 -19.76 14.96 -19.04 15.84 -18.29 16.69 -17.5 17.51 -16.69 18.28 -15.84 19.04 -14.96 19.76 -14.05 20.45 -13.12 21.12 -12.13 21.73 -11.13 22.34 -10.1 22.9 -9.02 23.43 -7.93 23.93 -6.79 24.39 -5.63 24.84 -4.43 25.23 -3.21 25.6 -1.95 25.93 -0.65 0 30.1 -24.41 0.62 -24.08 1.83 -23.73 3.02 -23.34 4.16 -22.93 5.3 -22.49 6.38 -22.02 7.45 -21.52 8.48 -20.99 9.49 -20.44 10.46 -19.85 11.42 -19.23 12.33 -18.59 13.21 -17.91 14.08 -17.21 14.89 -16.47 15.7 -15.69 16.47 -14.9 17.2 -14.08 17.9 -13.22 18.59 -12.33 19.23 -11.42 19.85 -10.46 20.44 -9.5 21 -8.48 21.52 -7.45 22.02 -6.39 22.49 -5.29 22.93 -4.17 23.35 -3.02 23.72 -1.83 24.08 -0.62 24.41 0 0zm-30.1 489.08l0 -489.08 30.1 0 0 489.08 -15.05 15.05 -15.05 -15.05zm15.05 15.05l-15.05 0 0 -15.05 15.05 15.05zm1956.29 0l-1956.29 0 0 -30.1 1956.29 0 15.05 15.05 -15.05 15.05zm15.05 -15.05l0 15.05 -15.05 0 15.05 -15.05zm0 -489.08l0 489.08 -30.1 0 0 -489.08 15.05 -15.05 15.05 15.05zm-15.05 -15.05l15.05 0 0 15.05 -15.05 -15.05zm-489.09 0l489.09 0 0 30.1 -489.09 0 0 -30.1zm474.04 -474.04l30.1 0 0 0 -0.65 25.93 -1.95 25.6 -3.21 25.23 -4.43 24.82 -5.62 24.39 -6.8 23.93 -7.93 23.43 -9.03 22.9 -10.1 22.34 -11.13 21.73 -12.13 21.12 -13.12 20.46 -14.05 19.76 -14.96 19.04 -15.84 18.29 -16.69 17.5 -17.5 16.69 -18.29 15.84 -19.04 14.96 -19.76 14.05 -20.46 13.12 -21.12 12.13 -21.73 11.13 -22.34 10.1 -22.9 9.03 -23.43 7.93 -23.93 6.8 -24.39 5.62 -24.82 4.43 -25.23 3.21 -25.6 1.95 -25.93 0.65 0 -30.1 24.41 -0.62 24.08 -1.83 23.72 -3.02 23.34 -4.17 22.93 -5.29 22.49 -6.39 22.02 -7.45 21.52 -8.49 21 -9.49 20.44 -10.46 19.85 -11.42 19.24 -12.33 18.59 -13.22 17.91 -14.08 17.2 -14.9 16.47 -15.7 15.7 -16.47 14.9 -17.2 14.08 -17.91 13.22 -18.59 12.33 -19.24 11.42 -19.85 10.46 -20.44 9.49 -21 8.49 -21.52 7.45 -22.02 6.39 -22.49 5.29 -22.93 4.17 -23.34 3.02 -23.72 1.83 -24.08 0.62 -24.41 0 0zm-474.04 -473.99l0 -30.1 25.93 0.65 25.6 1.95 25.23 3.21 24.83 4.43 24.39 5.63 23.93 6.79 23.43 7.93 22.9 9.02 22.34 10.1 21.73 11.13 21.12 12.13 20.46 13.12 19.76 14.05 19.04 14.96 18.29 15.84 17.5 16.69 16.69 17.5 15.84 18.29 14.96 19.03 14.05 19.76 13.12 20.46 12.13 21.11 11.13 21.74 10.09 22.33 9.03 22.9 7.93 23.43 6.8 23.93 5.62 24.39 4.43 24.82 3.21 25.23 1.95 25.6 0.65 25.93 -30.1 0 -0.62 -24.41 -1.83 -24.08 -3.02 -23.72 -4.17 -23.34 -5.29 -22.93 -6.39 -22.48 -7.45 -22.02 -8.48 -21.52 -9.5 -20.99 -10.46 -20.44 -11.42 -19.84 -12.33 -19.24 -13.22 -18.58 -14.08 -17.91 -14.9 -17.2 -15.7 -16.47 -16.47 -15.7 -17.2 -14.89 -17.91 -14.08 -18.59 -13.21 -19.24 -12.33 -19.85 -11.42 -20.44 -10.46 -20.99 -9.49 -21.52 -8.48 -22.02 -7.45 -22.49 -6.38 -22.93 -5.3 -23.33 -4.16 -23.73 -3.02 -24.08 -1.83 -24.41 -0.62zm-978.12 1520.9l978.12 0 0 30.1 -978.12 0 0 0 0 -30.1zm-474.03 504.14l-30.1 0 0 0 0.65 -25.93 1.95 -25.6 3.21 -25.23 4.43 -24.82 5.62 -24.39 6.8 -23.93 7.93 -23.43 9.03 -22.9 10.1 -22.34 11.13 -21.73 12.13 -21.12 13.12 -20.46 14.05 -19.76 14.96 -19.04 15.84 -18.29 16.69 -17.5 17.5 -16.69 18.29 -15.84 19.04 -14.96 19.76 -14.05 20.45 -13.12 21.12 -12.13 21.73 -11.13 22.34 -10.1 22.9 -9.03 23.43 -7.93 23.93 -6.8 24.39 -5.62 24.83 -4.43 25.23 -3.21 25.6 -1.95 25.93 -0.65 0 30.1 -24.41 0.62 -24.08 1.83 -23.72 3.02 -23.35 4.17 -22.93 5.29 -22.49 6.39 -22.02 7.45 -21.52 8.49 -21 9.49 -20.44 10.46 -19.85 11.42 -19.23 12.33 -18.59 13.22 -17.91 14.08 -17.2 14.9 -16.47 15.7 -15.69 16.47 -14.9 17.2 -14.08 17.91 -13.22 18.59 -12.33 19.24 -11.42 19.85 -10.46 20.44 -9.49 21 -8.49 21.52 -7.45 22.02 -6.39 22.49 -5.29 22.93 -4.17 23.34 -3.02 23.72 -1.83 24.08 -0.62 24.41 0 0zm-30.1 489.08l0 -489.08 30.1 0 0 489.08 0 0 -30.1 0zm504.13 474.04l0 30.1 0 0 -25.93 -0.65 -25.6 -1.95 -25.23 -3.21 -24.83 -4.43 -24.39 -5.63 -23.93 -6.79 -23.44 -7.93 -22.9 -9.03 -22.34 -10.1 -21.73 -11.13 -21.12 -12.13 -20.45 -13.12 -19.76 -14.05 -19.04 -14.96 -18.29 -15.84 -17.51 -16.69 -16.68 -17.51 -15.84 -18.28 -14.96 -19.04 -14.05 -19.76 -13.12 -20.45 -12.13 -21.12 -11.13 -21.74 -10.1 -22.33 -9.03 -22.9 -7.93 -23.43 -6.8 -23.93 -5.62 -24.39 -4.43 -24.83 -3.21 -25.23 -1.95 -25.6 -0.65 -25.93 30.1 0 0.62 24.41 1.83 24.08 3.02 23.72 4.17 23.35 5.29 22.93 6.39 22.49 7.45 22.02 8.49 21.52 9.49 21 10.46 20.44 11.42 19.85 12.33 19.23 13.22 18.59 14.08 17.91 14.9 17.21 15.7 16.47 16.47 15.7 17.2 14.9 17.91 14.08 18.59 13.22 19.23 12.33 19.85 11.42 20.44 10.46 21 9.49 21.52 8.49 22.01 7.45 22.49 6.38 22.93 5.3 23.35 4.17 23.72 3.02 24.08 1.83 24.41 0.62 0 0zm978.12 30.1l-978.12 0 0 -30.1 978.12 0 0 0 0 30.1zm474.04 -504.14l30.1 0 0 0 -0.65 25.93 -1.95 25.6 -3.21 25.23 -4.43 24.83 -5.62 24.39 -6.8 23.93 -7.93 23.43 -9.03 22.9 -10.1 22.33 -11.13 21.74 -12.13 21.12 -13.12 20.45 -14.05 19.76 -14.96 19.04 -15.84 18.29 -16.69 17.5 -17.5 16.69 -18.29 15.84 -19.04 14.96 -19.76 14.05 -20.46 13.12 -21.12 12.13 -21.73 11.13 -22.34 10.1 -22.9 9.03 -23.44 7.93 -23.93 6.79 -24.39 5.63 -24.82 4.43 -25.23 3.21 -25.6 1.95 -25.93 0.65 0 -30.1 24.41 -0.62 24.08 -1.83 23.72 -3.02 23.34 -4.17 22.93 -5.3 22.49 -6.38 22.01 -7.45 21.52 -8.49 21 -9.49 20.44 -10.46 19.85 -11.42 19.24 -12.33 18.59 -13.22 17.91 -14.08 17.2 -14.9 16.46 -15.7 15.71 -16.47 14.9 -17.2 14.08 -17.91 13.22 -18.59 12.33 -19.23 11.42 -19.85 10.46 -20.44 9.49 -21 8.49 -21.52 7.45 -22.02 6.39 -22.49 5.29 -22.93 4.17 -23.35 3.02 -23.72 1.83 -24.08 0.62 -24.41 0 0zm-474.04 -504.13l0 30.1 0 -30.1 25.93 0.65 25.6 1.95 25.23 3.21 24.82 4.43 24.39 5.62 23.93 6.8 23.43 7.93 22.9 9.03 22.34 10.1 21.73 11.13 21.12 12.13 20.46 13.12 19.76 14.05 19.04 14.96 18.29 15.84 17.5 16.69 16.69 17.5 15.84 18.29 14.96 19.04 14.05 19.76 13.12 20.45 12.13 21.12 11.13 21.73 10.1 22.34 9.03 22.9 7.93 23.43 6.8 23.93 5.62 24.39 4.43 24.83 3.21 25.23 1.95 25.6 0.65 25.93 -30.1 0 -0.62 -24.41 -1.83 -24.08 -3.02 -23.72 -4.17 -23.35 -5.29 -22.93 -6.39 -22.49 -7.45 -22.02 -8.49 -21.52 -9.49 -21 -10.46 -20.44 -11.42 -19.85 -12.33 -19.23 -13.22 -18.59 -14.08 -17.91 -14.9 -17.2 -15.7 -16.47 -16.47 -15.7 -17.2 -14.9 -17.91 -14.08 -18.59 -13.22 -19.24 -12.33 -19.85 -11.42 -20.44 -10.46 -21 -9.49 -21.52 -8.49 -22.02 -7.45 -22.49 -6.39 -22.93 -5.29 -23.34 -4.17 -23.72 -3.02 -24.08 -1.83 -24.41 -0.62 0 -30.1zm489.09 30.1l-489.09 0 0 -30.1 489.09 0 15.05 15.05 -15.05 15.05zm15.05 -15.05l0 15.05 -15.05 0 15.05 -15.05zm-504.14 -474.04l0 -30.1 25.93 0.65 25.6 1.95 25.23 3.21 24.82 4.43 24.39 5.62 23.93 6.8 23.43 7.93 22.9 9.03 22.34 10.1 21.73 11.13 21.12 12.13 20.46 13.12 19.76 14.05 19.04 14.96 18.29 15.84 17.5 16.69 16.69 17.5 15.84 18.29 14.96 19.04 14.05 19.76 13.12 20.46 12.13 21.12 11.13 21.73 10.1 22.34 9.03 22.9 7.93 23.43 6.8 23.93 5.62 24.39 4.43 24.82 3.21 25.23 1.95 25.6 0.65 25.93 -30.1 0 -0.62 -24.41 -1.83 -24.08 -3.02 -23.72 -4.17 -23.34 -5.29 -22.93 -6.39 -22.49 -7.45 -22.02 -8.49 -21.52 -9.49 -21 -10.46 -20.44 -11.42 -19.85 -12.33 -19.24 -13.22 -18.59 -14.08 -17.91 -14.9 -17.2 -15.7 -16.47 -16.47 -15.7 -17.2 -14.9 -17.91 -14.08 -18.59 -13.22 -19.24 -12.33 -19.85 -11.42 -20.44 -10.46 -21 -9.49 -21.52 -8.49 -22.02 -7.45 -22.49 -6.39 -22.93 -5.29 -23.34 -4.17 -23.72 -3.02 -24.08 -1.83 -24.41 -0.62zm0 -15.05l0 0 0 0 0 0zm0 0l0 0 0 0 0 0z"/>
  </g>
  <path class="fil6" d="M2304.01 3322.32l0 285.28 88.16 0 0 -103.04 63.42 0 22.56 -62.32 -85.98 0 0 -57.78 106.78 0 22.52 -62.14 -217.46 0zm244.42 0l88.11 0 0 285.28 -88.11 0 0 -285.28zm148.77 0l0 285.28 88.11 0 0 -103.04 63.46 0 22.56 -62.32 -86.03 0 0 -57.78 106.83 0 22.47 -62.14 -217.41 0zm275 0l-103.18 285.28 86.78 0 11 -38.35 99.57 0 11.52 38.35 89.01 0 -103.13 -285.28 -91.62 0 0.05 0zm44.41 73.33l35.22 118.82 -69.3 0 34.03 -118.82 0.05 0z"/>
  <path class="fil7" d="M3631.4 3841.21l-8.29 0 0 52.38 8.29 0 0 -20.86 41.99 0 0 -10.57 -41.99 0 0 -20.95zm41.99 -75.59l-45.74 0c-1.42,0 -2.56,0.38 -3.36,1.14 -0.81,0.76 -1.23,1.85 -1.23,3.27l0 11.71 39.81 18.48 -39.81 18.54 0 11.61c0,1.38 0.38,2.47 1.23,3.32 0.8,0.8 1.94,1.23 3.36,1.23l45.74 0 0 -10.29 -41.99 0 41.99 -19.24 0 -10.14 -41.99 -19.34 41.99 0 0 -10.29z"/>
  <g style="clip-path:url(#id0)">
   <image id="Taça.png" x="2263.44" y="1126.53" width="883.79" height="2079.94" xlink:href="Logo Vertical Bolão World Cup 2026_Images\Logo Vertical Bolão World Cup 2026_ImgID1.png"/>
  </g>
  <g>
   <path class="fil8 str1" d="M537.65 2318.58c140.88,-1.22 242.05,36.92 303.49,114.43 49.59,63.11 74.9,155.43 75.96,276.98 1.17,134.67 -26.28,234.35 -82.35,299.07 -61.54,70.98 -161.03,107.07 -298.45,108.26 -112.57,0.98 -200.55,-29.69 -263.94,-91.99 -68.96,-67.77 -104.03,-169.67 -105.21,-305.73 -1.3,-149.85 30.59,-255.8 95.66,-317.83 57.55,-54.37 149.16,-82.1 274.85,-83.19zm-2.54 184.42c-71.14,0.62 -127.61,18.02 -169.45,52.22 -46.63,38.39 -69.63,94.88 -68.98,169.47 0.63,73.21 26.33,128.23 77.06,165.09 42.39,30.71 97.44,45.77 165.11,45.19 78.04,-0.68 135.6,-13.61 172.67,-38.8 51.5,-34.98 76.84,-99.08 76.03,-192.31 -0.68,-78.73 -26.37,-133.76 -77.06,-165.09 -39.57,-24.53 -98.04,-36.44 -175.38,-35.77z"/>
   <path class="fil8 str1" d="M12.79 3317.98c48.4,6.48 85.65,20.32 111.73,41.5 26.08,21.19 39.26,47.32 39.53,78.39 0.19,21.4 -4.77,46.66 -15.06,75.77 -10.1,29.08 -20.9,58.19 -32.21,87.3 0.11,12.43 4.68,23.44 13.75,33.03 9.06,9.59 20.86,15.7 35.39,18.34l0.63 72.51c-14.53,-3.33 -29.07,-6.65 -43.6,-9.99 -21.47,-6.03 -39.14,-13.47 -53.03,-22.32 -16.67,-11.6 -29.91,-25.3 -39.72,-41.11 -9.81,-15.8 -14.81,-35.78 -15.02,-59.95 -0.09,-10.36 7.81,-34.77 23.71,-73.25 15.9,-38.47 23.79,-63.92 23.68,-76.35 -0.14,-15.89 -5.6,-28.62 -16.56,-38.19 -7.31,-6.16 -18.05,-10.9 -32.59,-14.23l-0.62 -71.47z"/>
   <path class="fil8 str1" d="M908.22 3119.6l1.57 181.28 -165.22 62.55 2.6 299.37 166.32 63.83 1.56 179.21 -727.7 -291.02 -1.54 -177.14 722.42 -318.08zm-289.54 300.86l-253.97 100.63 255.65 93.09 -1.68 -193.72z"/>
   <path class="fil8 str1" d="M915.16 3919.64l2.27 262.07c0.66,76.65 -7.44,138.2 -24.3,184.61 -21.59,58.9 -59.2,101.35 -112.86,127.37 -20.62,9.85 -40.43,16.75 -59.38,20.71 -18.96,3.96 -40.87,6.06 -65.73,6.27l-459.94 3.99 -1.62 -186.46 453.71 -3.94c20.73,-0.18 38.83,-2.75 54.32,-7.72 15.5,-4.97 30.8,-13.74 45.87,-26.3 21.95,-17.45 36.28,-37.61 42.98,-60.46 6.72,-22.86 9.92,-51.89 9.61,-87.11l-2.01 -232.03 117.06 -1.02z"/>
   <path class="fil8 str1" d="M557.52 4609.92c140.88,-1.22 242.04,36.92 303.49,114.42 49.6,63.11 74.91,155.43 75.96,276.99 1.17,134.67 -26.28,234.35 -82.35,299.07 -61.54,70.97 -161.03,107.07 -298.45,108.26 -112.57,0.98 -200.54,-29.69 -263.94,-91.99 -68.96,-67.77 -104.03,-169.68 -105.2,-305.73 -1.3,-149.86 30.59,-255.8 95.66,-317.84 57.54,-54.36 149.15,-82.09 274.85,-83.18zm-2.55 184.42c-71.13,0.62 -127.61,18.02 -169.44,52.23 -46.63,38.39 -69.63,94.88 -68.98,169.47 0.63,73.2 26.32,128.23 77.05,165.09 42.4,30.71 97.44,45.77 165.12,45.19 78.04,-0.68 135.59,-13.6 172.67,-38.79 51.49,-34.98 76.83,-99.08 76.02,-192.31 -0.68,-78.73 -26.37,-133.76 -77.05,-165.09 -39.58,-24.53 -98.04,-36.44 -175.39,-35.77z"/>
   <path class="fil8 str1" d="M732.85 5475.82c54.56,-0.48 100.99,18.46 139.32,56.81 38.31,38.35 57.71,84.8 58.19,139.35l4.07 470.3 -724.09 6.28 -3.91 -451.65c-0.46,-53.18 14.68,-99.41 45.41,-138.69 30.74,-39.3 71.29,-61.92 121.65,-67.87 4.14,-0.73 8.29,-1.11 12.43,-1.14 4.14,-0.04 8.29,-0.07 12.42,-0.11 38.68,-0.34 72.77,8.69 102.28,27.07 29.51,18.4 52.72,46.16 69.62,83.31 13.48,-38.1 34.28,-68.14 62.42,-90.16 28.12,-21.99 61.51,-33.16 100.19,-33.49zm-5.62 187.56c-24.17,0.21 -44.99,7.98 -62.48,23.33 -17.47,15.35 -26.11,34.76 -25.91,58.24l2.12 244.47 168.85 -1.47 -2.17 -249.65c-0.19,-22.1 -8.13,-40.15 -23.78,-54.18 -15.66,-14.01 -34.54,-20.94 -56.64,-20.74zm-293.07 11.86c-24.87,0.22 -46.21,8.17 -64.03,23.87 -17.82,15.69 -26.63,35.62 -26.42,59.8l1.99 228.93 173 -1.5 -1.03 -238.27c-0.19,-21.4 -8.45,-38.95 -24.8,-52.62 -16.35,-13.67 -35.92,-20.42 -58.71,-20.22z"/>
  </g>
  <path class="fil9" d="M4530.08 4634.13l130.08 39.02 0 21.59 -93.09 26.8c-3.6,0.99 -7.59,1.69 -12.1,2.03l0 0.52c3.08,0.22 6.98,1.13 11.84,2.64l93.35 29.1 0 20.81 -130.08 39.42 0 -21.86 97.82 -26.92c2.95,-0.87 6.85,-1.47 11.67,-1.78l0 -1.04c-3.73,-0.26 -7.68,-1 -11.92,-2.3l-97.56 -29.96 0 -19.03 98.08 -26.97c3.12,-0.82 7.02,-1.47 11.66,-1.86l0 -1.04c-3.3,-0.17 -7.2,-0.87 -11.66,-2.17l-98.08 -26.41 0 -20.59zm0 -227.22l130.08 39.02 0 21.59 -93.09 26.8c-3.6,0.99 -7.59,1.69 -12.1,2.03l0 0.52c3.08,0.22 6.98,1.13 11.84,2.64l93.35 29.1 0 20.81 -130.08 39.42 0 -21.86 97.82 -26.92c2.95,-0.87 6.85,-1.47 11.67,-1.78l0 -1.04c-3.73,-0.26 -7.68,-1 -11.92,-2.3l-97.56 -29.96 0 -19.03 98.08 -26.97c3.12,-0.82 7.02,-1.47 11.66,-1.86l0 -1.04c-3.3,-0.17 -7.2,-0.87 -11.66,-2.17l-98.08 -26.41 0 -20.59zm0 -227.22l130.08 39.02 0 21.59 -93.09 26.8c-3.6,0.99 -7.59,1.69 -12.1,2.03l0 0.52c3.08,0.22 6.98,1.13 11.84,2.64l93.35 29.1 0 20.81 -130.08 39.42 0 -21.86 97.82 -26.92c2.95,-0.87 6.85,-1.47 11.67,-1.78l0 -1.04c-3.73,-0.26 -7.68,-1 -11.92,-2.3l-97.56 -29.96 0 -19.03 98.08 -26.97c3.12,-0.82 7.02,-1.47 11.66,-1.86l0 -1.04c-3.3,-0.17 -7.2,-0.87 -11.66,-2.17l-98.08 -26.41 0 -20.59zm132.85 -70.56c0,3.9 -1.39,7.2 -4.16,9.97 -2.82,2.73 -6.16,4.12 -10.06,4.12 -3.9,0 -7.24,-1.39 -10.11,-4.12 -2.82,-2.78 -4.25,-6.07 -4.25,-9.97 0,-3.99 1.43,-7.37 4.25,-10.19 2.87,-2.78 6.2,-4.16 10.11,-4.16 3.9,0 7.24,1.39 10.06,4.16 2.78,2.82 4.16,6.2 4.16,10.19zm-21.59 -109.76l0 0.52 18.82 0 0 20.86 -192.56 0 0 -20.86 85.33 0 0 -0.52c-17.26,-10.23 -25.89,-25.23 -25.89,-44.96 0,-16.65 5.81,-29.74 17.48,-39.15 11.62,-9.45 27.23,-14.17 46.78,-14.17 21.77,0 39.2,5.29 52.29,15.87 13.05,10.58 19.6,25.06 19.6,43.44 0,17.21 -7.28,30.18 -21.85,38.98zm-52.47 0.52l18.17 0c10.75,0 19.9,-3.46 27.4,-10.49 7.5,-6.98 11.23,-15.83 11.23,-26.58 0,-12.62 -4.82,-22.5 -14.49,-29.66 -9.67,-7.15 -23.07,-10.75 -40.28,-10.75 -14.49,0 -25.8,3.34 -34.04,10.06 -8.2,6.68 -12.31,15.74 -12.31,27.15 0,12.14 4.21,21.85 12.62,29.22 8.45,7.37 18.99,11.06 31.69,11.06zm74.32 -225.65c0,19.21 -6.07,34.55 -18.21,46.05 -12.15,11.45 -28.27,17.21 -48.35,17.21 -21.85,0 -38.89,-5.98 -51.21,-17.91 -12.27,-11.97 -18.39,-28.1 -18.39,-48.43 0,-19.38 5.94,-34.51 17.91,-45.4 11.92,-10.88 28.49,-16.3 49.65,-16.3 20.77,0 37.38,5.85 49.86,17.56 12.49,11.75 18.73,27.49 18.73,47.22zm-118.63 -1.52c0,13.35 4.55,23.93 13.66,31.74 9.11,7.8 21.64,11.7 37.68,11.7 15.4,0 27.54,-3.94 36.43,-11.83 8.89,-7.89 13.35,-18.43 13.35,-31.61 0,-13.49 -4.38,-23.85 -13.1,-31.09 -8.72,-7.24 -21.12,-10.84 -37.2,-10.84 -16.26,0 -28.79,3.6 -37.59,10.84 -8.84,7.24 -13.22,17.6 -13.22,31.09zm115.6 -156.63l0 20.86 -192.56 0 0 -20.86 192.56 0zm0 -174.49l0 20.86 -20.34 0 0 0.47c15.61,9.06 23.37,22.42 23.37,40.02 0,12.97 -3.42,23.11 -10.27,30.44 -6.85,7.33 -15.96,10.97 -27.32,10.97 -24.28,0 -38.46,-14.31 -42.4,-42.93l-5.46 -38.98c-22.11,0 -33.17,8.93 -33.17,26.79 0,15.65 5.33,29.79 16,42.41l-21.33 0c-8.16,-12.79 -12.19,-27.49 -12.19,-44.19 0,-30.57 16.17,-45.87 48.52,-45.87l84.6 0zm-65.82 20.86l4.34 31.35c1.35,9.67 3.73,16.96 7.2,21.85 3.42,4.9 9.5,7.37 18.21,7.37 6.33,0 11.53,-2.25 15.56,-6.8 4.03,-4.51 6.03,-10.54 6.03,-18.08 0,-10.32 -3.64,-18.87 -10.84,-25.58 -7.24,-6.76 -16.44,-10.1 -27.54,-10.1l-12.97 0zm68.86 -153.68c0,19.21 -6.07,34.55 -18.21,46.05 -12.15,11.45 -28.27,17.21 -48.35,17.21 -21.85,0 -38.89,-5.98 -51.21,-17.91 -12.27,-11.97 -18.39,-28.1 -18.39,-48.43 0,-19.38 5.94,-34.51 17.91,-45.4 11.92,-10.88 28.49,-16.3 49.65,-16.3 20.77,0 37.38,5.85 49.86,17.56 12.49,11.75 18.73,27.49 18.73,47.22zm-118.63 -1.52c0,13.35 4.55,23.93 13.66,31.74 9.11,7.8 21.64,11.7 37.68,11.7 15.4,0 27.54,-3.94 36.43,-11.83 8.89,-7.89 13.35,-18.43 13.35,-31.61 0,-13.49 -4.38,-23.85 -13.1,-31.09 -8.72,-7.24 -21.12,-10.84 -37.2,-10.84 -16.26,0 -28.79,3.6 -37.59,10.84 -8.84,7.24 -13.22,17.6 -13.22,31.09zm-14.48 -299.67l130.08 39.02 0 21.59 -93.09 26.8c-3.6,0.99 -7.59,1.69 -12.1,2.03l0 0.52c3.08,0.22 6.98,1.13 11.84,2.64l93.35 29.1 0 20.81 -130.08 39.42 0 -21.86 97.82 -26.92c2.95,-0.87 6.85,-1.47 11.67,-1.78l0 -1.04c-3.73,-0.26 -7.68,-1 -11.92,-2.3l-97.56 -29.96 0 -19.03 98.08 -26.97c3.12,-0.82 7.02,-1.47 11.66,-1.86l0 -1.04c-3.3,-0.17 -7.2,-0.87 -11.66,-2.17l-98.08 -26.41 0 -20.59zm133.11 -117.69c0,19.21 -6.07,34.55 -18.21,46.05 -12.15,11.45 -28.27,17.21 -48.35,17.21 -21.85,0 -38.89,-5.98 -51.21,-17.91 -12.27,-11.97 -18.39,-28.1 -18.39,-48.43 0,-19.38 5.94,-34.51 17.91,-45.4 11.92,-10.88 28.49,-16.3 49.65,-16.3 20.77,0 37.38,5.85 49.86,17.56 12.49,11.75 18.73,27.49 18.73,47.22zm-118.63 -1.52c0,13.35 4.55,23.93 13.66,31.74 9.11,7.8 21.64,11.7 37.68,11.7 15.4,0 27.54,-3.94 36.43,-11.83 8.89,-7.89 13.35,-18.43 13.35,-31.61 0,-13.49 -4.38,-23.85 -13.1,-31.09 -8.72,-7.24 -21.12,-10.84 -37.2,-10.84 -16.26,0 -28.79,3.6 -37.59,10.84 -8.84,7.24 -13.22,17.6 -13.22,31.09zm6.59 -203.63c-2.77,3.64 -4.16,8.89 -4.16,15.74 0,8.93 4.16,16.35 12.57,22.33 8.37,5.94 19.82,8.93 34.3,8.93l66.3 0 0 20.86 -130.08 0 0 -20.86 26.79 0 0 -0.52c-9.15,-2.94 -16.26,-7.46 -21.42,-13.57 -5.12,-6.11 -7.68,-12.92 -7.68,-20.46 0,-5.42 0.61,-9.54 1.78,-12.45l21.59 0zm109.01 -82.66l0 20.86 -192.56 0 0 -20.86 192.56 0zm0 -192.4l0 20.86 -22.11 0 0 0.47c16.78,9.67 25.15,24.59 25.15,44.75 0,16.3 -5.81,29.4 -17.47,39.15 -11.62,9.8 -27.49,14.7 -47.57,14.7 -21.5,0 -38.72,-5.42 -51.68,-16.26 -12.97,-10.84 -19.43,-25.28 -19.43,-43.32 0,-17.86 7.02,-30.87 21.07,-39.02l0 -0.47 -80.52 0 0 -20.86 192.56 0zm-58.8 20.86l-19.21 0c-10.49,0 -19.38,3.46 -26.67,10.4 -7.28,6.93 -10.93,15.74 -10.93,26.4 0,12.71 4.64,22.72 13.96,30.01 9.32,7.28 22.2,10.93 38.63,10.93 15.01,0 26.8,-3.51 35.52,-10.49 8.67,-6.98 13.01,-16.39 13.01,-28.14 0,-11.62 -4.21,-21.03 -12.58,-28.27 -8.37,-7.24 -18.99,-10.84 -31.74,-10.84zm52.81 -190.89c6.03,9.97 9.02,21.86 9.02,35.56 0,18.55 -6.03,33.51 -18.08,44.92 -12.05,11.36 -27.7,17.09 -46.96,17.09 -21.42,0 -38.63,-6.16 -51.64,-18.43 -12.97,-12.27 -19.47,-28.66 -19.47,-49.17 0,-11.45 2.08,-21.51 6.33,-30.22l21.34 0c-6.77,9.67 -10.15,19.99 -10.15,31 0,13.27 4.77,24.2 14.31,32.69 9.5,8.5 22.03,12.79 37.51,12.79 15.26,0 27.27,-4.03 36.07,-12.01 8.8,-8.02 13.23,-18.73 13.23,-32.22 0,-11.36 -3.78,-22.02 -11.32,-32l19.82 0zm5.98 -175.88l0 20.82 -20.59 0 0 0.52c15.78,8.63 23.63,22.02 23.63,40.15 0,31.01 -18.43,46.48 -55.37,46.48l-77.74 0 0 -20.68 74.44 0c27.45,0 41.15,-10.54 41.15,-31.52 0,-10.15 -3.73,-18.52 -11.23,-25.11 -7.5,-6.55 -17.3,-9.84 -29.44,-9.84l-74.92 0 0 -20.82 130.08 0zm-18.82 -102.64l0 0.52 78.66 0 0 20.86 -189.92 0 0 -20.86 22.85 0 0 -0.52c-17.26,-10.23 -25.89,-25.23 -25.89,-44.96 0,-16.74 5.81,-29.83 17.48,-39.24 11.62,-9.41 27.23,-14.09 46.78,-14.09 21.77,0 39.2,5.29 52.29,15.87 13.05,10.58 19.6,25.06 19.6,43.44 0,16.87 -7.28,29.83 -21.85,38.98zm-52.47 0.52l18.17 0c10.75,0 19.9,-3.46 27.4,-10.49 7.5,-6.98 11.23,-15.83 11.23,-26.58 0,-12.62 -4.82,-22.5 -14.49,-29.66 -9.67,-7.15 -23.07,-10.75 -40.28,-10.75 -14.49,0 -25.8,3.34 -34.04,10.06 -8.2,6.68 -12.31,15.74 -12.31,27.15 0,12.14 4.21,21.85 12.62,29.22 8.45,7.37 18.99,11.06 31.69,11.06zm-63.13 -248.29c-5.59,0 -10.45,0.87 -14.61,2.6 -4.12,1.74 -7.59,4.12 -10.32,7.11 -2.78,3.03 -4.82,6.55 -6.16,10.62 -1.39,4.08 -2.04,8.46 -2.04,13.23 0,4.03 0.52,8.02 1.65,11.92 1.08,3.9 2.6,7.67 4.55,11.36 1.95,3.69 4.29,7.24 6.98,10.67 2.73,3.47 5.73,6.64 9.02,9.63l-22.34 0c-5.68,-5.86 -10.02,-12.4 -13.05,-19.64 -2.99,-7.24 -4.51,-16.09 -4.51,-26.49 0,-7.46 1.08,-14.35 3.25,-20.68 2.17,-6.37 5.33,-11.88 9.45,-16.52 4.16,-4.68 9.28,-8.32 15.39,-11.01 6.11,-2.64 13.1,-3.99 20.95,-3.99 7.2,0 13.74,0.83 19.6,2.47 5.81,1.65 11.32,4.16 16.48,7.5 5.21,3.34 10.15,7.54 14.87,12.66 4.77,5.07 9.58,11.02 14.48,17.91 6.11,8.54 11.32,15.56 15.65,21.12 4.3,5.55 8.33,9.97 12.1,13.22 3.78,3.25 7.54,5.55 11.32,6.85 3.77,1.35 8.11,2 13.01,2l0 -90.71 18.69 0 0 112.43 -9.02 0c-7.81,0 -14.66,-0.87 -20.6,-2.55 -5.89,-1.69 -11.53,-4.47 -16.87,-8.37 -5.33,-3.9 -10.66,-9.02 -16,-15.31 -5.33,-6.33 -11.36,-14.05 -18.03,-23.2 -4.77,-6.59 -9.28,-12.14 -13.62,-16.56 -4.34,-4.47 -8.63,-8.02 -12.97,-10.76 -4.29,-2.69 -8.67,-4.64 -13.13,-5.76 -4.47,-1.17 -9.15,-1.74 -14.18,-1.74zm42.58 -210.92c15.22,0 28.75,1.35 40.5,4.12 11.79,2.73 21.72,6.72 29.78,11.92 8.11,5.2 14.22,11.62 18.43,19.21 4.21,7.59 6.29,16.17 6.29,25.84 0,9.15 -1.99,17.3 -6.03,24.45 -4.03,7.16 -9.89,13.19 -17.61,18.08 -7.67,4.95 -17.17,8.68 -28.35,11.19 -11.23,2.56 -24.11,3.82 -38.59,3.82 -15.91,0 -29.96,-1.35 -42.15,-3.99 -12.22,-2.69 -22.41,-6.59 -30.69,-11.75 -8.24,-5.16 -14.49,-11.58 -18.69,-19.25 -4.16,-7.68 -6.28,-16.44 -6.28,-26.36 0,-38.2 31.13,-57.28 93.39,-57.28zm2.04 21.34c-51.86,0 -77.75,12.31 -77.75,36.94 0,26.02 26.36,39.02 79.14,39.02 49.21,0 73.8,-12.74 73.8,-38.24 0,-25.15 -25.06,-37.72 -75.19,-37.72zm-44.62 -169.29c-5.59,0 -10.45,0.87 -14.61,2.6 -4.12,1.74 -7.59,4.12 -10.32,7.11 -2.78,3.03 -4.82,6.55 -6.16,10.62 -1.39,4.08 -2.04,8.46 -2.04,13.23 0,4.03 0.52,8.02 1.65,11.92 1.08,3.9 2.6,7.67 4.55,11.36 1.95,3.69 4.29,7.24 6.98,10.67 2.73,3.47 5.73,6.64 9.02,9.63l-22.34 0c-5.68,-5.86 -10.02,-12.4 -13.05,-19.64 -2.99,-7.24 -4.51,-16.09 -4.51,-26.49 0,-7.46 1.08,-14.35 3.25,-20.68 2.17,-6.37 5.33,-11.88 9.45,-16.52 4.16,-4.68 9.28,-8.32 15.39,-11.01 6.11,-2.64 13.1,-3.99 20.95,-3.99 7.2,0 13.74,0.83 19.6,2.47 5.81,1.65 11.32,4.16 16.48,7.5 5.21,3.34 10.15,7.54 14.87,12.66 4.77,5.07 9.58,11.02 14.48,17.91 6.11,8.54 11.32,15.56 15.65,21.12 4.3,5.55 8.33,9.97 12.1,13.22 3.78,3.25 7.54,5.55 11.32,6.85 3.77,1.35 8.11,2 13.01,2l0 -90.71 18.69 0 0 112.43 -9.02 0c-7.81,0 -14.66,-0.87 -20.6,-2.55 -5.89,-1.69 -11.53,-4.47 -16.87,-8.37 -5.33,-3.9 -10.66,-9.02 -16,-15.31 -5.33,-6.33 -11.36,-14.05 -18.03,-23.2 -4.77,-6.59 -9.28,-12.14 -13.62,-16.56 -4.34,-4.47 -8.63,-8.02 -12.97,-10.76 -4.29,-2.69 -8.67,-4.64 -13.13,-5.76 -4.47,-1.17 -9.15,-1.74 -14.18,-1.74zm76.62 -211.17c8.89,0 17.04,1.43 24.5,4.29 7.46,2.91 13.92,6.9 19.34,11.97 5.41,5.07 9.62,11.14 12.61,18.17 3.04,7.02 4.51,14.65 4.51,22.85 0,9.15 -1.91,17.35 -5.73,24.59 -3.77,7.24 -9.27,13.4 -16.43,18.43 -7.16,5.03 -15.92,8.84 -26.23,11.49 -10.32,2.64 -21.99,3.95 -34.95,3.95 -15.83,0 -30.18,-1.78 -43.1,-5.29 -12.92,-3.51 -23.98,-8.5 -33.17,-15.01 -9.19,-6.46 -16.26,-14.26 -21.29,-23.41 -4.98,-9.15 -7.5,-19.34 -7.5,-30.61 0,-12.54 1.78,-22.63 5.24,-30.22l19.69 0c-4.85,9.36 -7.24,19.3 -7.24,29.7 0,8.15 1.82,15.48 5.46,21.98 3.64,6.5 8.76,12.1 15.44,16.78 6.64,4.64 14.66,8.24 24.06,10.71 9.41,2.52 19.86,3.78 31.35,3.78l0 -0.52c-15.13,-8.37 -22.72,-22.25 -22.72,-41.54 0,-7.98 1.35,-15.13 4.08,-21.55 2.69,-6.38 6.55,-11.84 11.49,-16.35 4.94,-4.55 10.84,-8.07 17.73,-10.49 6.85,-2.47 14.48,-3.69 22.85,-3.69zm2.64 21.33c-6.33,0 -12.06,0.83 -17.12,2.43 -5.07,1.6 -9.41,3.9 -12.97,6.89 -3.56,3.04 -6.29,6.73 -8.2,11.15 -1.91,4.38 -2.86,9.41 -2.86,14.96 0,5.21 0.99,9.97 2.95,14.35 1.95,4.42 4.6,8.24 7.93,11.45 3.34,3.21 7.24,5.73 11.66,7.54 4.47,1.82 9.19,2.73 14.18,2.73 6.24,0 12.14,-0.86 17.6,-2.64 5.46,-1.78 10.23,-4.29 14.26,-7.5 4.07,-3.21 7.29,-7.07 9.59,-11.49 2.34,-4.46 3.51,-9.36 3.51,-14.78 0,-5.25 -1,-10.06 -2.99,-14.35 -2,-4.33 -4.77,-8.02 -8.33,-11.06 -3.55,-3.08 -7.8,-5.41 -12.74,-7.11 -4.94,-1.69 -10.45,-2.56 -16.48,-2.56zm57.93 -99.26c0,3.9 -1.39,7.2 -4.16,9.97 -2.82,2.73 -6.16,4.12 -10.06,4.12 -3.9,0 -7.24,-1.39 -10.11,-4.12 -2.82,-2.78 -4.25,-6.07 -4.25,-9.97 0,-3.99 1.43,-7.37 4.25,-10.19 2.87,-2.78 6.2,-4.16 10.11,-4.16 3.9,0 7.24,1.39 10.06,4.16 2.78,2.82 4.16,6.2 4.16,10.19zm-8.76 -177.05c6.03,9.97 9.02,21.86 9.02,35.56 0,18.55 -6.03,33.51 -18.08,44.92 -12.05,11.36 -27.7,17.09 -46.96,17.09 -21.42,0 -38.63,-6.16 -51.64,-18.43 -12.97,-12.27 -19.47,-28.66 -19.47,-49.17 0,-11.45 2.08,-21.51 6.33,-30.22l21.34 0c-6.77,9.67 -10.15,19.99 -10.15,31 0,13.27 4.77,24.2 14.31,32.69 9.5,8.5 22.03,12.79 37.51,12.79 15.26,0 27.27,-4.03 36.07,-12.01 8.8,-8.02 13.23,-18.73 13.23,-32.22 0,-11.36 -3.78,-22.02 -11.32,-32l19.82 0zm9.02 -125.06c0,19.21 -6.07,34.55 -18.21,46.05 -12.15,11.45 -28.27,17.21 -48.35,17.21 -21.85,0 -38.89,-5.98 -51.21,-17.91 -12.27,-11.97 -18.39,-28.1 -18.39,-48.43 0,-19.38 5.94,-34.51 17.91,-45.4 11.92,-10.88 28.49,-16.3 49.65,-16.3 20.77,0 37.38,5.85 49.86,17.56 12.49,11.75 18.73,27.49 18.73,47.22zm-118.63 -1.52c0,13.35 4.55,23.93 13.66,31.74 9.11,7.8 21.64,11.7 37.68,11.7 15.4,0 27.54,-3.94 36.43,-11.83 8.89,-7.89 13.35,-18.43 13.35,-31.61 0,-13.49 -4.38,-23.85 -13.1,-31.09 -8.72,-7.24 -21.12,-10.84 -37.2,-10.84 -16.26,0 -28.79,3.6 -37.59,10.84 -8.84,7.24 -13.22,17.6 -13.22,31.09zm115.6 -320.48l0 20.81 -74.71 0c-14.4,0 -24.8,2.26 -31.22,6.68 -6.46,4.46 -9.67,11.92 -9.67,22.42 0,8.89 4.07,16.47 12.18,22.68 8.16,6.24 17.87,9.36 29.23,9.36l74.19 0 0 20.82 -77.23 0c-25.58,0 -38.37,9.88 -38.37,29.61 0,9.15 3.82,16.65 11.49,22.59 7.68,5.94 17.65,8.89 29.92,8.89l74.19 0 0 20.86 -130.08 0 0 -20.86 20.59 0 0 -0.52c-15.78,-9.19 -23.63,-22.68 -23.63,-40.36 0,-8.89 2.47,-16.65 7.41,-23.25 4.95,-6.64 11.45,-11.14 19.52,-13.61 -17.96,-9.63 -26.93,-24.02 -26.93,-43.19 0,-28.62 17.65,-42.92 52.95,-42.92l80.17 0zm2.78 -85.82c0,3.9 -1.39,7.2 -4.16,9.97 -2.82,2.73 -6.16,4.12 -10.06,4.12 -3.9,0 -7.24,-1.39 -10.11,-4.12 -2.82,-2.78 -4.25,-6.07 -4.25,-9.97 0,-3.99 1.43,-7.37 4.25,-10.19 2.87,-2.78 6.2,-4.16 10.11,-4.16 3.9,0 7.24,1.39 10.06,4.16 2.78,2.82 4.16,6.2 4.16,10.19zm-21.59 -109.76l0 0.52 18.82 0 0 20.86 -192.56 0 0 -20.86 85.33 0 0 -0.52c-17.26,-10.23 -25.89,-25.23 -25.89,-44.96 0,-16.65 5.81,-29.74 17.48,-39.15 11.62,-9.45 27.23,-14.17 46.78,-14.17 21.77,0 39.2,5.29 52.29,15.87 13.05,10.58 19.6,25.06 19.6,43.44 0,17.21 -7.28,30.18 -21.85,38.98zm-52.47 0.52l18.17 0c10.75,0 19.9,-3.46 27.4,-10.49 7.5,-6.98 11.23,-15.83 11.23,-26.58 0,-12.62 -4.82,-22.5 -14.49,-29.66 -9.67,-7.15 -23.07,-10.75 -40.28,-10.75 -14.49,0 -25.8,3.34 -34.04,10.06 -8.2,6.68 -12.31,15.74 -12.31,27.15 0,12.14 4.21,21.85 12.62,29.22 8.45,7.37 18.99,11.06 31.69,11.06zm-37.72 -239.14c-2.77,3.64 -4.16,8.89 -4.16,15.74 0,8.93 4.16,16.35 12.57,22.33 8.37,5.94 19.82,8.93 34.3,8.93l66.3 0 0 20.86 -130.08 0 0 -20.86 26.79 0 0 -0.52c-9.15,-2.94 -16.26,-7.46 -21.42,-13.57 -5.12,-6.11 -7.68,-12.92 -7.68,-20.46 0,-5.42 0.61,-9.54 1.78,-12.45l21.59 0z"/>
 </g>
</svg>
